Coordinates
version=1
nRows=54
nColumns=12
inDegrees=yes

Units are S.I. units (second, meters, Newtons, ...)
Angles are in degrees

endheader
time	SC_y	SC_z	SC_x	AC_y	AC_z	AC_x	GH_y	GH_z	GH_yy	EL_x	PS_y
       0.0              -48.21          10.33          79.55           35.0         -19.36         -18.73         -145.6          10.13         -170.9          97.78          74.03
   0.04043              -48.21          10.34          79.55           35.0         -19.36         -18.72         -145.6          10.14         -170.9          97.77          74.02
   0.08086              -48.21          10.34          79.55           35.0         -19.36         -18.72         -145.6          10.15         -170.9          97.77          74.01
    0.1213              -48.21          10.35          79.54           35.0         -19.36         -18.71         -145.6          10.16         -170.9          97.77           74.0
    0.1617               -48.2          10.35          79.54           35.0         -19.36         -18.71         -145.6          10.17         -170.9          97.77          73.99
    0.2022               -48.2          10.36          79.54           35.0         -19.36          -18.7         -145.6          10.19         -170.9          97.77          73.97
    0.2426               -48.2          10.36          79.54           35.0         -19.36          -18.7         -145.6           10.2         -170.8          97.76          73.96
     0.283               -48.2          10.37          79.54           35.0         -19.36         -18.69         -145.5          10.21         -170.8          97.76          73.94
    0.3235               -48.2          10.37          79.54           35.0         -19.36         -18.68         -145.5          10.23         -170.8          97.76          73.93
    0.3639               -48.2          10.38          79.54           35.0         -19.36         -18.68         -145.5          10.25         -170.8          97.76          73.91
    0.4043              -48.19          10.39          79.54           35.0         -19.36         -18.67         -145.5          10.26         -170.8          97.75          73.89
    0.4447              -48.19           10.4          79.54           35.0         -19.35         -18.66         -145.5          10.28         -170.8          97.75          73.87
    0.4852              -48.19           10.4          79.53           35.0         -19.35         -18.65         -145.5           10.3         -170.7          97.75          73.85
    0.5256              -48.19          10.41          79.53           35.0         -19.35         -18.64         -145.5          10.32         -170.7          97.74          73.83
     0.566              -48.18          10.42          79.53           35.0         -19.35         -18.63         -145.5          10.35         -170.7          97.74          73.81
    0.6065              -48.18          10.43          79.53           35.0         -19.35         -18.62         -145.5          10.37         -170.7          97.73          73.78
    0.6469              -48.18          10.44          79.53           35.0         -19.35         -18.61         -145.5           10.4         -170.6          97.73          73.75
    0.6873              -48.17          10.46          79.52           35.0         -19.35          -18.6         -145.4          10.43         -170.6          97.72          73.72
    0.7278              -48.17          10.47          79.52           35.0         -19.35         -18.59         -145.4          10.47         -170.6          97.72          73.69
    0.7682              -48.16          10.49          79.52           35.0         -19.35         -18.57         -145.4           10.5         -170.5          97.71          73.65
    0.8086              -48.16           10.5          79.51           35.0         -19.35         -18.55         -145.4          10.54         -170.5           97.7          73.61
    0.8491              -48.15          10.52          79.51           35.0         -19.34         -18.53         -145.4          10.59         -170.5           97.7          73.56
    0.8895              -48.15          10.54          79.51          34.99         -19.34         -18.51         -145.3          10.64         -170.4          97.69          73.51
    0.9299              -48.14          10.56           79.5          34.99         -19.34         -18.49         -145.3          10.69         -170.3          97.68          73.46
    0.9704              -48.13          10.59           79.5          34.99         -19.34         -18.47         -145.3          10.75         -170.3          97.67           73.4
     1.011              -48.13          10.61          79.49          34.99         -19.34         -18.44         -145.2          10.82         -170.2          97.66          73.33
     1.051              -48.12          10.64          79.49          34.99         -19.33         -18.41         -145.2           10.9         -170.1          97.64          73.25
     1.092              -48.11          10.68          79.48          34.99         -19.33         -18.37         -145.2          10.98         -170.1          97.63          73.17
     1.132              -48.09          10.72          79.47          34.99         -19.33         -18.33         -145.1          11.08         -170.0          97.61          73.07
     1.173              -48.08          10.76          79.46          34.98         -19.32         -18.29         -145.1          11.19         -169.9          97.59          72.96
     1.213              -48.07          10.81          79.45          34.98         -19.32         -18.23         -145.0          11.31         -169.7          97.57          72.83
     1.253              -48.05          10.87          79.44          34.98         -19.32         -18.18         -144.9          11.45         -169.6          97.54          72.69
     1.294              -48.03          10.93          79.43          34.98         -19.31         -18.11         -144.9          11.62         -169.4          97.51          72.52
     1.334              -48.01          11.01          79.42          34.97          -19.3         -18.03         -144.8          11.81         -169.2          97.48          72.32
     1.375              -47.98           11.1           79.4          34.97          -19.3         -17.93         -144.7          12.03         -169.0          97.44           72.1
     1.415              -47.95          11.21          79.38          34.96         -19.29         -17.82         -144.5           12.3         -168.8          97.39          71.83
     1.456              -47.91          11.33          79.35          34.96         -19.28         -17.69         -144.4          12.61         -168.4          97.34          71.51
     1.496              -47.86          11.49          79.32          34.95         -19.26         -17.54         -144.2          12.99         -168.1          97.27          71.13
     1.536              -47.81          11.67          79.29          34.94         -19.25         -17.35         -144.0          13.45         -167.6          97.19          70.67
     1.577              -47.74          11.89          79.24          34.93         -19.23         -17.12         -143.7           14.0         -167.1          97.09           70.1
     1.617              -47.66          12.17          79.19          34.92         -19.21         -16.83         -143.4          14.69         -166.4          96.97           69.4
     1.658              -47.56          12.52          79.12           34.9         -19.18         -16.47         -142.9          15.55         -165.5          96.82          68.54
     1.698              -47.43          12.95          79.04          34.88         -19.14         -16.03         -142.4          16.63         -164.5          96.63          67.44
     1.739              -47.26           13.5          78.93          34.86         -19.09         -15.46         -141.7           18.0         -163.1          96.39          66.05
     1.779              -47.05          14.21          78.79          34.82         -19.03         -14.73         -140.9          19.76         -161.3          96.08          64.27
     1.819              -46.78          15.12          78.62          34.78         -18.96         -13.79         -139.8          22.01         -159.1          95.69          61.98
      1.86              -46.43          16.28          78.39          34.73         -18.86         -12.59         -138.4          24.89         -156.2          95.18          59.06
       1.9              -45.99          17.74          78.11          34.66         -18.74         -11.09         -136.6          28.51         -152.6          94.54          55.39
     1.941              -45.46          19.51          77.76          34.58         -18.59         -9.255         -134.4          32.92         -148.3          93.76          50.91
     1.981              -44.85          21.57          77.36          34.48         -18.42          -7.13         -131.9          38.03         -143.2          92.86          45.73
     2.022              -44.18           23.8          76.93          34.38         -18.23         -4.829         -129.2          43.57         -137.7          91.89          40.11
     2.062              -43.51          26.03           76.5          34.27         -18.04         -2.528         -126.5          49.11         -132.2          90.91           34.5
     2.102               -42.9          28.09           76.1          34.18         -17.87        -0.4028         -124.0          54.22         -127.1          90.01          29.31
     2.143              -42.36          29.87          75.75          34.09         -17.72          1.431         -121.9          58.63         -122.7          89.24          24.84
